<?xml version="1.0" encoding="UTF-8"?>
<svg xmlns="http://www.w3.org/2000/svg" xmlns:xlink="http://www.w3.org/1999/xlink" width="40px" height="16px" viewBox="0 0 40 16" version="1.1">
<g id="surface1">
<path style=" stroke:none;fill-rule:nonzero;fill:rgb(100%,100%,100%);fill-opacity:1;" d="M 7.203125 0.410156 C 3.570312 0.410156 0.625 3.234375 0.625 6.714844 C 0.625 7.570312 0.839844 8.351562 1.1875 9.070312 C 1.6875 10.09375 2.46875 10.992188 3.3125 11.796875 C 4.5 12.9375 7.203125 15.449219 7.203125 15.449219 C 7.203125 15.449219 9.90625 12.917969 11.015625 11.851562 C 11.878906 11.023438 12.6875 10.117188 13.207031 9.070312 C 13.5625 8.351562 13.78125 7.578125 13.78125 6.714844 C 13.78125 3.234375 10.835938 0.410156 7.203125 0.410156 Z M 7.203125 0.410156 "/>
<path style=" stroke:none;fill-rule:evenodd;fill:rgb(93.333334%,21.960784%,47.450981%);fill-opacity:1;" d="M 14.109375 6.65625 C 14.109375 7.558594 13.882812 8.375 13.507812 9.125 C 12.96875 10.226562 12.117188 11.179688 11.210938 12.050781 C 10.042969 13.167969 7.203125 15.828125 7.203125 15.828125 C 7.203125 15.828125 4.363281 13.191406 3.113281 11.992188 C 2.226562 11.148438 1.410156 10.203125 0.882812 9.125 C 0.515625 8.375 0.292969 7.554688 0.292969 6.65625 C 0.292969 2.996094 3.386719 0.03125 7.203125 0.03125 C 11.015625 0.03125 14.109375 2.996094 14.109375 6.65625 Z M 10.878906 6.140625 C 10.878906 4.988281 9.992188 4.054688 8.890625 4.054688 C 8.179688 4.054688 7.550781 4.453125 7.203125 5.050781 C 6.851562 4.453125 6.226562 4.054688 5.511719 4.054688 C 4.414062 4.054688 3.523438 4.988281 3.523438 6.140625 C 3.523438 6.765625 3.789062 7.328125 4.207031 7.710938 L 5.554688 9.125 L 7.023438 10.664062 C 7.070312 10.71875 7.132812 10.746094 7.203125 10.746094 C 7.269531 10.746094 7.335938 10.71875 7.382812 10.664062 L 8.851562 9.125 L 10.195312 7.710938 C 10.617188 7.328125 10.878906 6.765625 10.878906 6.140625 Z M 10.878906 6.140625 "/>
<path style=" stroke:none;fill-rule:evenodd;fill:rgb(0.784314%,30.980393%,63.921571%);fill-opacity:1;" d="M 16.625 7.246094 L 16.625 0.6875 L 18.066406 0.6875 L 20.15625 3.328125 L 22.257812 0.6875 L 23.695312 0.6875 L 23.695312 7.246094 L 22.09375 7.246094 L 22.09375 3.1875 L 20.15625 5.585938 L 18.238281 3.1875 L 18.238281 7.246094 Z M 24.96875 7.246094 L 24.96875 0.6875 L 29.320312 0.6875 L 29.320312 1.898438 L 26.597656 1.898438 L 26.597656 3.234375 L 29.203125 3.234375 L 29.203125 4.453125 L 26.597656 4.453125 L 26.597656 6.015625 L 29.398438 6.015625 L 29.398438 7.246094 Z M 30.445312 7.246094 L 30.445312 0.6875 L 32.890625 0.6875 C 33.585938 0.6875 34.125 0.742188 34.511719 0.84375 C 34.898438 0.953125 35.25 1.125 35.574219 1.371094 C 35.992188 1.6875 36.304688 2.0625 36.519531 2.503906 C 36.734375 2.945312 36.839844 3.429688 36.839844 3.964844 C 36.839844 4.546875 36.710938 5.078125 36.449219 5.554688 C 36.1875 6.03125 35.8125 6.429688 35.320312 6.75 C 35.039062 6.925781 34.730469 7.054688 34.390625 7.132812 C 34.054688 7.207031 33.554688 7.246094 32.890625 7.246094 Z M 32.074219 2.015625 L 32.074219 5.917969 L 33.289062 5.917969 C 33.839844 5.917969 34.289062 5.734375 34.640625 5.375 C 34.992188 5.007812 35.164062 4.539062 35.164062 3.964844 C 35.164062 3.390625 34.992188 2.921875 34.640625 2.558594 C 34.289062 2.195312 33.839844 2.015625 33.289062 2.015625 Z M 37.851562 0.6875 L 39.53125 0.6875 L 39.53125 7.246094 L 37.851562 7.246094 Z M 37.851562 0.6875 "/>
<path style=" stroke:none;fill-rule:evenodd;fill:rgb(0%,72.941178%,94.509804%);fill-opacity:1;" d="M 22.359375 14.25 L 22.359375 15.324219 C 21.972656 15.53125 21.578125 15.683594 21.175781 15.789062 C 20.773438 15.898438 20.375 15.949219 19.984375 15.949219 C 19.601562 15.949219 19.242188 15.898438 18.898438 15.796875 C 18.554688 15.699219 18.230469 15.550781 17.925781 15.351562 C 17.433594 15.03125 17.054688 14.617188 16.78125 14.113281 C 16.507812 13.609375 16.367188 13.0625 16.367188 12.472656 C 16.367188 12.023438 16.460938 11.59375 16.640625 11.171875 C 16.820312 10.75 17.074219 10.382812 17.40625 10.070312 C 17.757812 9.734375 18.15625 9.480469 18.59375 9.3125 C 19.03125 9.148438 19.515625 9.0625 20.046875 9.0625 C 20.421875 9.0625 20.789062 9.109375 21.15625 9.195312 C 21.519531 9.28125 21.902344 9.414062 22.304688 9.597656 L 22.304688 10.632812 C 21.882812 10.402344 21.492188 10.234375 21.121094 10.125 C 20.753906 10.015625 20.394531 9.960938 20.046875 9.960938 C 19.273438 9.960938 18.640625 10.203125 18.132812 10.6875 C 17.628906 11.171875 17.375 11.777344 17.375 12.507812 C 17.375 13.226562 17.625 13.828125 18.121094 14.3125 C 18.617188 14.796875 19.242188 15.039062 19.992188 15.039062 C 20.375 15.039062 20.765625 14.976562 21.15625 14.84375 C 21.554688 14.714844 21.953125 14.515625 22.359375 14.25 Z M 23.476562 15.828125 L 23.476562 9.171875 L 24.414062 9.171875 L 24.414062 14.972656 L 27.5625 14.972656 L 27.5625 15.828125 Z M 28.125 9.171875 L 29.0625 9.171875 L 29.0625 12.992188 C 29.0625 13.417969 29.085938 13.71875 29.132812 13.898438 C 29.179688 14.074219 29.253906 14.226562 29.359375 14.359375 C 29.554688 14.589844 29.789062 14.765625 30.054688 14.875 C 30.324219 14.992188 30.628906 15.046875 30.96875 15.046875 C 31.542969 15.046875 32.003906 14.898438 32.351562 14.601562 C 32.703125 14.304688 32.878906 13.910156 32.878906 13.421875 L 32.878906 9.171875 L 33.820312 9.171875 L 33.820312 13.449219 C 33.820312 14.191406 33.554688 14.792969 33.03125 15.257812 C 32.503906 15.71875 31.816406 15.949219 30.96875 15.949219 C 30.46875 15.949219 30.015625 15.859375 29.613281 15.679688 C 29.210938 15.5 28.867188 15.238281 28.59375 14.890625 C 28.421875 14.6875 28.300781 14.453125 28.226562 14.203125 C 28.15625 13.945312 28.125 13.554688 28.125 13.03125 Z M 35.203125 15.828125 L 35.203125 9.171875 L 37.140625 9.171875 C 37.796875 9.171875 38.304688 9.320312 38.664062 9.621094 C 39.023438 9.921875 39.199219 10.351562 39.199219 10.90625 C 39.199219 11.25 39.117188 11.535156 38.960938 11.765625 C 38.796875 11.992188 38.554688 12.167969 38.21875 12.292969 C 38.703125 12.40625 39.078125 12.617188 39.339844 12.914062 C 39.601562 13.21875 39.734375 13.585938 39.734375 14.015625 C 39.734375 14.570312 39.53125 15.007812 39.132812 15.335938 C 38.730469 15.664062 38.1875 15.828125 37.5 15.828125 Z M 36.140625 12.023438 L 36.78125 12.023438 C 37.261719 12.023438 37.617188 11.9375 37.851562 11.765625 C 38.085938 11.589844 38.203125 11.320312 38.203125 10.964844 C 38.203125 10.636719 38.109375 10.398438 37.925781 10.25 C 37.742188 10.101562 37.445312 10.023438 37.046875 10.023438 L 36.140625 10.023438 Z M 36.140625 12.898438 L 36.140625 14.960938 L 37.398438 14.960938 C 37.859375 14.960938 38.195312 14.882812 38.40625 14.71875 C 38.621094 14.554688 38.726562 14.296875 38.726562 13.949219 C 38.726562 13.585938 38.609375 13.320312 38.371094 13.152344 C 38.132812 12.984375 37.757812 12.898438 37.25 12.898438 Z M 36.140625 12.898438 "/>
</g>
</svg>
